<?xml version="1.0" encoding="UTF-8" standalone="no"?>
<svg
   xmlns:osb="http://www.openswatchbook.org/uri/2009/osb"
   xmlns:dc="http://purl.org/dc/elements/1.1/"
   xmlns:cc="http://creativecommons.org/ns#"
   xmlns:rdf="http://www.w3.org/1999/02/22-rdf-syntax-ns#"
   xmlns:svg="http://www.w3.org/2000/svg"
   xmlns="http://www.w3.org/2000/svg"
   xmlns:xlink="http://www.w3.org/1999/xlink"
   xmlns:sodipodi="http://sodipodi.sourceforge.net/DTD/sodipodi-0.dtd"
   xmlns:inkscape="http://www.inkscape.org/namespaces/inkscape"
   width="48"
   height="48"
   id="svg11300"
   version="1.0"
   style="display:inline;enable-background:new"
   viewBox="0 0 48 48"
   sodipodi:docname="org.xfce.notification.svg"
   inkscape:version="0.92.4 (5da689c313, 2019-01-14)"
   inkscape:export-filename="/home/maug/Downloads/xfce4-taskmanager.svg.png"
   inkscape:export-xdpi="36"
   inkscape:export-ydpi="36">
  <sodipodi:namedview
     pagecolor="#ffffff"
     bordercolor="#666666"
     borderopacity="1"
     objecttolerance="10"
     gridtolerance="10"
     guidetolerance="10"
     inkscape:pageopacity="0"
     inkscape:pageshadow="2"
     inkscape:window-width="1920"
     inkscape:window-height="1027"
     id="namedview44"
     showgrid="true"
     inkscape:zoom="15.217653"
     inkscape:cx="16.946097"
     inkscape:cy="20.663732"
     inkscape:window-x="0"
     inkscape:window-y="29"
     inkscape:window-maximized="1"
     inkscape:current-layer="svg11300"
     inkscape:lockguides="false"
     showguides="true"
     inkscape:guide-bbox="true"
     inkscape:snap-bbox="true">
    <inkscape:grid
       type="xygrid"
       id="grid4761"
       empspacing="4" />
  </sodipodi:namedview>
  <title
     id="title4162">Adwaita Icon Template</title>
  <defs
     id="defs3">
    <linearGradient
       inkscape:collect="always"
       id="linearGradient882">
      <stop
         style="stop-color:#f9da02;stop-opacity:1;"
         offset="0"
         id="stop878" />
      <stop
         style="stop-color:#dcb102;stop-opacity:1"
         offset="1"
         id="stop880" />
    </linearGradient>
    <linearGradient
       inkscape:collect="always"
       id="linearGradient907">
      <stop
         style="stop-color:#fbeb83;stop-opacity:1"
         offset="0"
         id="stop903" />
      <stop
         style="stop-color:#ad7702;stop-opacity:1"
         offset="1"
         id="stop905" />
    </linearGradient>
    <linearGradient
       id="linearGradient1020"
       osb:paint="gradient">
      <stop
         style="stop-color:#ffffff;stop-opacity:1;"
         offset="0"
         id="stop1016" />
      <stop
         style="stop-color:#ffffff;stop-opacity:0.09411765"
         offset="1"
         id="stop1018" />
    </linearGradient>
    <clipPath
       clipPathUnits="userSpaceOnUse"
       id="clipPath1058">
      <path
         style="fill:#dcb102;stroke:none;stroke-width:0.1;stroke-linecap:butt;stroke-linejoin:miter;stroke-miterlimit:4;stroke-dasharray:none;stroke-opacity:1"
         d="m 60,100 14,4 v -4 z"
         id="path1060"
         inkscape:connector-curvature="0" />
    </clipPath>
    <clipPath
       clipPathUnits="userSpaceOnUse"
       id="clipPath1058-0">
      <path
         style="fill:#dcb102;stroke:none;stroke-width:0.1;stroke-linecap:butt;stroke-linejoin:miter;stroke-miterlimit:4;stroke-dasharray:none;stroke-opacity:1"
         d="m 60,100 14,4 v -4 z"
         id="path1060-9"
         inkscape:connector-curvature="0" />
    </clipPath>
    <clipPath
       clipPathUnits="userSpaceOnUse"
       id="clipPath1114">
      <rect
         style="opacity:0.40400002;fill:#fcf4c0;fill-opacity:1;stroke:none;stroke-width:0.1;stroke-linecap:butt;stroke-miterlimit:4;stroke-dasharray:none;stroke-opacity:1"
         id="rect1116"
         width="48"
         height="88"
         x="-4"
         y="-184" />
    </clipPath>
    <clipPath
       clipPathUnits="userSpaceOnUse"
       id="clipPath1141">
      <rect
         style="opacity:1;fill:#ad7702;fill-opacity:1;stroke:none;stroke-width:0.1;stroke-linecap:butt;stroke-miterlimit:4;stroke-dasharray:none;stroke-opacity:1"
         id="rect1143"
         width="48"
         height="8"
         x="-4.000001"
         y="-111.90909" />
    </clipPath>
    <clipPath
       clipPathUnits="userSpaceOnUse"
       id="clipPath1141-1">
      <rect
         style="opacity:1;fill:#ad7702;fill-opacity:1;stroke:none;stroke-width:0.1;stroke-linecap:butt;stroke-miterlimit:4;stroke-dasharray:none;stroke-opacity:1"
         id="rect1143-8"
         width="48"
         height="8"
         x="-4.000001"
         y="-111.90909" />
    </clipPath>
    <clipPath
       clipPathUnits="userSpaceOnUse"
       id="clipPath1114-9">
      <rect
         style="opacity:0.40400002;fill:#fcf4c0;fill-opacity:1;stroke:none;stroke-width:0.1;stroke-linecap:butt;stroke-miterlimit:4;stroke-dasharray:none;stroke-opacity:1"
         id="rect1116-20"
         width="48"
         height="88"
         x="-4"
         y="-184" />
    </clipPath>
    <clipPath
       clipPathUnits="userSpaceOnUse"
       id="clipPath1141-3">
      <rect
         style="opacity:1;fill:#ad7702;fill-opacity:1;stroke:none;stroke-width:0.1;stroke-linecap:butt;stroke-miterlimit:4;stroke-dasharray:none;stroke-opacity:1"
         id="rect1143-7"
         width="48"
         height="8"
         x="-4.000001"
         y="-111.90909" />
    </clipPath>
    <linearGradient
       inkscape:collect="always"
       xlink:href="#linearGradient907"
       id="linearGradient909"
       x1="-4.000001"
       y1="-107.90909"
       x2="25.600317"
       y2="-107.90909"
       gradientUnits="userSpaceOnUse" />
    <clipPath
       clipPathUnits="userSpaceOnUse"
       id="clipPath958">
      <path
         style="opacity:1;fill:#fbeb83;fill-opacity:1;stroke:none;stroke-width:6.00000048;stroke-linecap:butt;stroke-miterlimit:4;stroke-dasharray:none;stroke-opacity:1"
         id="path960"
         sodipodi:type="arc"
         sodipodi:cx="65.5"
         sodipodi:cy="107"
         sodipodi:rx="9"
         sodipodi:ry="9"
         sodipodi:start="0"
         sodipodi:end="6.2808815"
         sodipodi:open="true"
         d="m 74.5,107 a 9,9 0 0 1 -8.994816,9 9,9 0 0 1 -9.005178,-8.98963 9,9 0 0 1 8.984443,-9.010357 9,9 0 0 1 9.015527,8.979257" />
    </clipPath>
    <clipPath
       clipPathUnits="userSpaceOnUse"
       id="clipPath958-3">
      <path
         style="opacity:1;fill:#fbeb83;fill-opacity:1;stroke:none;stroke-width:6.00000048;stroke-linecap:butt;stroke-miterlimit:4;stroke-dasharray:none;stroke-opacity:1"
         id="path960-6"
         sodipodi:type="arc"
         sodipodi:cx="65.5"
         sodipodi:cy="107"
         sodipodi:rx="9"
         sodipodi:ry="9"
         sodipodi:start="0"
         sodipodi:end="6.2808815"
         sodipodi:open="true"
         d="m 74.5,107 a 9,9 0 0 1 -8.994816,9 9,9 0 0 1 -9.005178,-8.98963 9,9 0 0 1 8.984443,-9.010357 9,9 0 0 1 9.015527,8.979257" />
    </clipPath>
    <clipPath
       clipPathUnits="userSpaceOnUse"
       id="clipPath958-35">
      <path
         style="opacity:1;fill:#fbeb83;fill-opacity:1;stroke:none;stroke-width:6.00000048;stroke-linecap:butt;stroke-miterlimit:4;stroke-dasharray:none;stroke-opacity:1"
         id="path960-62"
         sodipodi:type="arc"
         sodipodi:cx="65.5"
         sodipodi:cy="107"
         sodipodi:rx="9"
         sodipodi:ry="9"
         sodipodi:start="0"
         sodipodi:end="6.2808815"
         sodipodi:open="true"
         d="m 74.5,107 a 9,9 0 0 1 -8.994816,9 9,9 0 0 1 -9.005178,-8.98963 9,9 0 0 1 8.984443,-9.010357 9,9 0 0 1 9.015527,8.979257" />
    </clipPath>
    <clipPath
       clipPathUnits="userSpaceOnUse"
       id="clipPath958-36">
      <path
         style="opacity:1;fill:#fbeb83;fill-opacity:1;stroke:none;stroke-width:6.00000048;stroke-linecap:butt;stroke-miterlimit:4;stroke-dasharray:none;stroke-opacity:1"
         id="path960-7"
         sodipodi:type="arc"
         sodipodi:cx="65.5"
         sodipodi:cy="107"
         sodipodi:rx="9"
         sodipodi:ry="9"
         sodipodi:start="0"
         sodipodi:end="6.2808815"
         sodipodi:open="true"
         d="m 74.5,107 a 9,9 0 0 1 -8.994816,9 9,9 0 0 1 -9.005178,-8.98963 9,9 0 0 1 8.984443,-9.010357 9,9 0 0 1 9.015527,8.979257" />
    </clipPath>
    <clipPath
       clipPathUnits="userSpaceOnUse"
       id="clipPath958-7">
      <path
         style="opacity:1;fill:#fbeb83;fill-opacity:1;stroke:none;stroke-width:6.00000048;stroke-linecap:butt;stroke-miterlimit:4;stroke-dasharray:none;stroke-opacity:1"
         id="path960-0"
         sodipodi:type="arc"
         sodipodi:cx="65.5"
         sodipodi:cy="107"
         sodipodi:rx="9"
         sodipodi:ry="9"
         sodipodi:start="0"
         sodipodi:end="6.2808815"
         sodipodi:open="true"
         d="m 74.5,107 a 9,9 0 0 1 -8.994816,9 9,9 0 0 1 -9.005178,-8.98963 9,9 0 0 1 8.984443,-9.010357 9,9 0 0 1 9.015527,8.979257" />
    </clipPath>
    <clipPath
       clipPathUnits="userSpaceOnUse"
       id="clipPath1114-93">
      <rect
         style="opacity:0.40400002;fill:#fcf4c0;fill-opacity:1;stroke:none;stroke-width:0.1;stroke-linecap:butt;stroke-miterlimit:4;stroke-dasharray:none;stroke-opacity:1"
         id="rect1116-6"
         width="48"
         height="88"
         x="-4"
         y="-184" />
    </clipPath>
    <linearGradient
       inkscape:collect="always"
       xlink:href="#linearGradient882"
       id="linearGradient884"
       x1="61.780254"
       y1="55.959087"
       x2="127.29436"
       y2="55.959087"
       gradientUnits="userSpaceOnUse"
       gradientTransform="matrix(0.40622523,0,0,0.39727585,-18.248019,-1.2311921)" />
  </defs>
  <metadata
     id="metadata4">
    <rdf:RDF>
      <cc:Work
         rdf:about="">
        <dc:format>image/svg+xml</dc:format>
        <dc:type
           rdf:resource="http://purl.org/dc/dcmitype/StillImage" />
        <dc:creator>
          <cc:Agent>
            <dc:title>GNOME Design Team</dc:title>
          </cc:Agent>
        </dc:creator>
        <dc:source />
        <cc:license
           rdf:resource="http://creativecommons.org/licenses/by-sa/4.0/" />
        <dc:title>Adwaita Icon Template</dc:title>
        <dc:subject>
          <rdf:Bag />
        </dc:subject>
        <dc:date />
        <dc:rights>
          <cc:Agent>
            <dc:title />
          </cc:Agent>
        </dc:rights>
        <dc:publisher>
          <cc:Agent>
            <dc:title />
          </cc:Agent>
        </dc:publisher>
        <dc:identifier />
        <dc:relation />
        <dc:language />
        <dc:coverage />
        <dc:description />
        <dc:contributor>
          <cc:Agent>
            <dc:title />
          </cc:Agent>
        </dc:contributor>
      </cc:Work>
      <cc:License
         rdf:about="http://creativecommons.org/licenses/by-sa/4.0/">
        <cc:permits
           rdf:resource="http://creativecommons.org/ns#Reproduction" />
        <cc:permits
           rdf:resource="http://creativecommons.org/ns#Distribution" />
        <cc:requires
           rdf:resource="http://creativecommons.org/ns#Notice" />
        <cc:requires
           rdf:resource="http://creativecommons.org/ns#Attribution" />
        <cc:permits
           rdf:resource="http://creativecommons.org/ns#DerivativeWorks" />
        <cc:requires
           rdf:resource="http://creativecommons.org/ns#ShareAlike" />
      </cc:License>
    </rdf:RDF>
  </metadata>
  <g
     transform="translate(0,-250)"
     id="g1063" />
  <rect
     style="opacity:1;fill:#00aade;fill-opacity:1;stroke:none;stroke-width:1;stroke-linecap:butt;stroke-miterlimit:4;stroke-dasharray:none;stroke-opacity:1"
     id="rect1260"
     width="0"
     height="0"
     x="0"
     y="-80" />
  <g
     id="g874"
     transform="matrix(1.5,0,0,1.5,-28.101905,-36.410564)" />
  <path
     style="opacity:1;fill:#f9da02;fill-opacity:1;stroke:#ad7702;stroke-width:1;stroke-linecap:butt;stroke-miterlimit:4;stroke-dasharray:none;stroke-opacity:1"
     id="path2024"
     sodipodi:type="arc"
     sodipodi:cx="24"
     sodipodi:cy="42"
     sodipodi:rx="3.5"
     sodipodi:ry="3.5"
     sodipodi:start="0"
     sodipodi:end="6.2808815"
     sodipodi:open="true"
     d="m 27.5,42 a 3.5,3.5 0 0 1 -3.497984,3.499999 3.5,3.5 0 0 1 -3.502014,-3.495967 3.5,3.5 0 0 1 3.493951,-3.504027 3.5,3.5 0 0 1 3.506038,3.491932" />
  <path
     style="fill:#f9da02;stroke:#000000;stroke-width:1px;stroke-linecap:butt;stroke-linejoin:miter;stroke-opacity:1"
     d="m 128,-40 v 0"
     id="path2086"
     inkscape:connector-curvature="0" />
  <path
     style="display:inline;opacity:1;fill:url(#linearGradient884);fill-opacity:1;stroke:#ad7702;stroke-width:0.99999994;stroke-linecap:butt;stroke-linejoin:miter;stroke-miterlimit:4;stroke-dasharray:none;stroke-dashoffset:0;stroke-opacity:1;marker:none;paint-order:normal;enable-background:new"
     sodipodi:nodetypes="ccsccccscc"
     id="path872"
     d="M 23.999403,3.5 C 16.820137,3.5 13.177142,8.2727274 11.000199,16.22727 L 7.7503958,32.136361 c -0.3519864,1.723146 -1.4555099,3.44778 -3.2503111,3.44778 L 4.5005931,38.5 H 43.498214 l 0.0015,-2.915859 c -1.794836,0 -2.905337,-1.435913 -3.251324,-3.160266 L 36.998612,16.22727 C 35.275144,8.2727274 31.178671,3.5 23.999403,3.5 Z"
     inkscape:connector-curvature="0" />
  <path
     inkscape:connector-curvature="0"
     d="m 44,-184 c -17.673119,0 -26.64104,12.01364 -31.999999,32.03636 l -8.0820874,40.05455 c -0.5207426,2.58078 -3.12141292,8 -7.9179146,8 v 8.009091 H 92 v -8.009091 c -4.41833,0 -7.13353,-3.67169 -8,-8.00909 l -8,-40.04546 C 71.757361,-171.98636 61.673121,-184 44,-184 Z"
     id="path40220-0-6-7"
     sodipodi:nodetypes="ccsccccscc"
     style="display:inline;opacity:1;fill:#ad7702;fill-opacity:1;stroke:none;stroke-width:8.0045433;stroke-linecap:butt;stroke-linejoin:miter;stroke-miterlimit:4;stroke-dasharray:none;stroke-dashoffset:0;stroke-opacity:1;marker:none;paint-order:normal;enable-background:new"
     clip-path="url(#clipPath1141-1)"
     transform="matrix(-0.41664497,0,0,0.3787868,42.332379,75.359391)" />
  <path
     style="display:inline;opacity:0.63200001;fill:#fbeb83;fill-opacity:1;stroke:none;stroke-width:0.99796867;stroke-linecap:butt;stroke-linejoin:miter;stroke-miterlimit:4;stroke-dasharray:none;stroke-dashoffset:0;stroke-opacity:1;marker:none;paint-order:normal;enable-background:new"
     d="m 24.399586,3.9979687 c -7.16147,0 -10.795434,4.741434 -12.966981,12.6433323 L 8.1908566,32.444892 C 7.8397437,34.156633 6.7394613,36 4.9491102,36 v 0 c 1.7903511,0 6.1323748,-1.821781 6.4834948,-3.53352 l 3.241744,-15.803597 c 2.171548,-7.9018934 5.333097,-12.6433318 9.725237,-12.6433318 0,0 7.470069,0.1681748 0,-0.021584 z"
     id="path40220"
     inkscape:connector-curvature="0"
     sodipodi:nodetypes="cccccccccc" />
  <path
     inkscape:connector-curvature="0"
     d="m 44,-184 c -17.673119,0 -26.64104,12.01364 -31.999999,32.03636 l -8.8012534,40.04546 c -0.724873,1.49447 -2.40000001,5.34243 -4.8,5.34243 h -2.4 l 0,2.32345 0.00125,8.352301 H 92 l 0.0037,-8.352301 c -4.41833,0 -7.137277,-3.32848 -8.003747,-7.66588 l -8,-40.04546 C 71.757361,-171.98636 61.673121,-184 44,-184 Z"
     id="path40220-0-6-5"
     sodipodi:nodetypes="cccscccccscc"
     style="display:inline;opacity:1;fill:url(#linearGradient909);fill-opacity:1;stroke:none;stroke-width:8.0045433;stroke-linecap:butt;stroke-linejoin:miter;stroke-miterlimit:4;stroke-dasharray:none;stroke-dashoffset:0;stroke-opacity:1;marker:none;paint-order:normal;enable-background:new"
     clip-path="url(#clipPath1141-3)"
     transform="matrix(0.41666667,0,0,0.375,5.6671885,74.965908)" />
  <path
     style="opacity:1;fill:#fbeb83;fill-opacity:1;stroke:none;stroke-width:0.99999994;stroke-linecap:butt;stroke-miterlimit:4;stroke-dasharray:none;stroke-opacity:1"
     d="m 23.994144,38.999999 a 3,3 0 0 0 -2.994141,3.003906 3,3 0 0 0 3.001953,2.996094 3,3 0 0 0 0.507813,-0.04297 3,3 0 0 1 -2.509766,-2.953125 3,3 0 0 1 2.494141,-2.960937 3,3 0 0 0 -0.5,-0.04297 z"
     id="path867"
     inkscape:connector-curvature="0" />
  <path
     style="fill:#ad7702;fill-rule:evenodd;stroke:none;stroke-width:1px;stroke-linecap:butt;stroke-linejoin:miter;stroke-opacity:1;fill-opacity:1"
     d="m 22,39 5,2 -1,-2 z"
     id="path873"
     inkscape:connector-curvature="0" />
</svg>
